<?xml version="1.0" encoding="utf-8"?>
<!-- Generator: Adobe Illustrator 26.1.0, SVG Export Plug-In . SVG Version: 6.00 Build 0)  -->
<svg version="1.1" id="Capa_1" xmlns="http://www.w3.org/2000/svg" xmlns:xlink="http://www.w3.org/1999/xlink" x="0px" y="0px"
	 viewBox="0 0 217.4 149.9" style="enable-background:new 0 0 217.4 149.9;" xml:space="preserve">
<style type="text/css">
	.st0{fill:#FFFFFF;stroke:#FFFFFF;stroke-miterlimit:10;}
	.st1{stroke:#000000;stroke-miterlimit:10;}
</style>
<g>
	<path class="st0" d="M55.6,87.6c22.5-13.9,45.8-27.5,45.8-27.5l10.9-5.3c0.6-0.3,1.2-0.5,1.8-0.7l10.1-3c2.8-0.8,5.3-2.5,7.1-4.8
		l0,0c0-0.1,0.1-0.1,0.2-0.2l10.2-8.4c0.5-0.4,1.1-0.8,1.8-1l2.8-1.1c1.6-0.6,9.5-1.5,11.2-1.5l5.2,0.5c1.1,0.1,2.1,0.4,3.1,1
		l2.5,1.4c0.8,0.4,1.4,1,2,1.7l1.3,1.6l1,2.6l1.4,0.5l2.8,0.8c0.5,0.1,1,0.3,1.5,0.6l3.8,1.8l0.1,0.1c0.9,0.9,1.4,2,1.4,3.3l0,0
		l-0.3,0.2c-1.3,0.8-2.9,1.2-4.5,1.2l0,0c-0.7,0-3.4,1.9-3.4,1.9l-1.7,4.1l-0.4,1.3c-0.5,1.9-0.8,3.9-0.6,5.9l0,0
		c0,0.6,0.3,1.2,0.8,1.6l0,0c1.1,1,1.9,2.3,2.3,3.7l0.4,1.4l0.1,0.7c0.1,1.3-0.9,2.4-2.2,2.4l0,0l-1.7-3.4l0,0
		c-1.1-1.6-2.7-2.7-4.5-3.3l-3.9-1.3l-7-2.4l-5.8-2.5l-4.8-1.9c-0.6-0.2-1.2-0.6-1.8-0.9l-1.8-1.1l-2.2-1.1c-1.4-0.7-3-1.2-4.6-1.3
		l0,0l0,0c-0.9,0.7-1.1,2-0.4,2.9l0.2,0.3l3.6,1.2l6.7,3.1l3.6,2.6c0.7,0.5,1.2,1,1.8,1.6l1.5,1.5l0,0c0.8,2.2,1.3,4.6,1.4,6.9
		l0.1,1.5l-1,3.1l-1,1.6c-0.6,0.9-1.3,1.6-2.2,2.2l-2.2,1.4c-1.3,0.9-2.8,1.5-4.3,1.9l-10.4,2.8l-4.5,1.5c-0.8,0.3-1.6,0.6-2.4,0.9
		l-2.9,1.2l-0.5,0.1c-4.6,1.3-9.1,3-13.4,5.1l0,0l-8.9,3.1l-5.3,1.9l-6,1.9l-5.5,1h-7h-5.8l-6-1l-4.8-1.4l-5.8-0.7l-8.2-1.7
		l-6.5-0.7l-9.1,0.5l-5.8-0.2l0,0c-3.7,0.2-7.3,0.8-10.8,1.9l0,0c0,0,0,0-0.8-0.1l-2.4-0.4c-0.5-0.1-1.4-1.1-1.4-2.4l6.8-2.1
		L13.6,99c1-0.4,2.1-0.7,3.1-0.9l8-2l10.6-2.6l7.7-1.3c0.8-0.1,1.6-0.3,2.4-0.6l8-2.8C54.2,88.4,54.9,88,55.6,87.6z"/>
	<path class="st1" d="M158.8,51.5l3.9-0.6c1-0.2,2.1-0.2,3.1,0l3,0.4l0,0c1.8,1,2.9,2.8,2.9,4.8l0,0c0,0.4-0.1,0.7-0.3,1l-1.6,2.4
		l-0.5,0.5c-1,1-2.4,1.6-3.9,1.6h-3.2l-1.1-0.2c-1.7-0.2-3.2-0.9-4.5-2l-0.5-0.4c0,0,0,0-0.1,0c-1.8-1.1-2.4-3.4-1.6-5.3l0,0
		l1.2-0.9C156.6,52.1,157.7,51.7,158.8,51.5z"/>
	<path class="st0" d="M107,119.2l0.4,0.1c0.5,0.1,0.9,0.4,1.2,0.9l0.4,0.5l1,1l0.6,0.4c0.4,0.2,0.8,0.3,1.2,0.3h1.5l1.2-0.3l0.4-1
		V120l-0.5-1.4l0.1-0.6l0.4,0.1h2h0.5c0.6,0,0.8,0.4,1.1,0.9l0.8,0.6l0.8,0.8c0.7,0.7,1.4,1.2,2.2,1.7l0.3,0.2l1.8,0.6
		c0.5,0.2,1,0.2,1.6,0.2h2.7c0.4,0,0.8,0,1.2,0.1l3.5,0.9c0.5,0.1,1.1,0.2,1.6,0.2h2.2l5,1.4l1.1,1.2l0.3,1.1l-1.4-0.6l-2.1-0.2
		h-1.2l-0.8,0.6L136,128h-3.7l-3.1-0.7l-5.3-0.9l-4.1-0.3l-3.2-0.5l-0.9,0.6c0,0-0.3,0.3,0.1,0.5c0.4,0.2,1.6,0.9,2,1
		s1.6,0.6,2.1,0.7s4.5,1.4,4.5,1.4l3.2,0.7l3.6,0.9c0,0,3.1-0.2,3.4,0s1.1,0.8,1.1,0.8h2.8l0.8,0.9l0.3,0.9v1l-1-1l-2.4-0.1l-1,0.1
		l-1.3,0.7c0,0-2.4,0.3-2.7,0.2s-1.2-1-1.5-1c-0.2,0-1.9,0.1-3,0.2c-0.7,0-1.4-0.1-2.1-0.3l-1-0.4c0,0-0.7-0.2-1.7-0.2
		s-4.7-0.5-4.7-0.5l-2.8-0.6l-4.5-0.2l-4.7-0.1c0,0-1.5,0.2-1.5,0.1s-2-1-2-1v-1l0.1-0.4c0,0,0.6-0.7,1-0.8s1.5-0.9,1.5-0.9h4.2h1.5
		l0.6-1.2l-0.5-1.2l-1.9-1.1l-1-0.6l-1.6-1l-1.5-1l-0.2-0.5c-0.3-0.6-0.3-1.3,0-2v-0.1l0,0C104.8,119,105.9,118.9,107,119.2z"/>
	<circle class="st1" cx="163.7" cy="44.6" r="2.5"/>
</g>
</svg>
